<svg width="24" height="24" viewBox="0 0 24 24" fill="none" xmlns="http://www.w3.org/2000/svg">
<g clip-path="url(#clip0_4008_20)">
<path fill-rule="evenodd" clip-rule="evenodd" d="M11.9538 23.9076C5.40767 23.9076 0 18.4999 0 11.9538C0 5.40767 5.39849 0 11.9446 0C18.4907 0 23.9076 5.40767 23.9076 11.9538C23.9076 18.4999 18.4999 23.9076 11.9538 23.9076ZM10.4848 17.9582C10.8245 17.9582 11.1183 17.8022 11.3387 17.4625L17.5084 7.79476C17.6461 7.59277 17.7654 7.34488 17.7654 7.12453C17.7654 6.63794 17.3339 6.33496 16.8841 6.33496C16.6178 6.33496 16.3516 6.49104 16.1496 6.8032L10.4389 15.8833L7.39997 12.0732C7.16126 11.7702 6.91337 11.66 6.61958 11.66C6.1697 11.66 5.79328 12.0181 5.79328 12.5047C5.79328 12.7342 5.88509 12.9821 6.04117 13.1749L9.58508 17.4716C9.86969 17.8205 10.1451 17.9582 10.4848 17.9582Z" fill="#AD343E"/>
</g>
<defs>
<clipPath id="clip0_4008_20">
<rect width="23.9076" height="23.9076" fill="white"/>
</clipPath>
</defs>
</svg>
