<svg width="28" height="28" viewBox="0 0 28 28" fill="none" xmlns="http://www.w3.org/2000/svg">
<circle cx="13.5855" cy="13.5855" r="13.5855" fill="#F9F9F7" fill-opacity="0.12"/>
<path fill-rule="evenodd" clip-rule="evenodd" d="M14.1931 7.01602C10.7085 7.01602 7.90503 9.81945 7.90503 13.3041C7.90503 16.0813 9.71285 18.4393 12.2019 19.2777C12.5163 19.3301 12.6211 19.1467 12.6211 18.9633C12.6211 18.8061 12.6211 18.4131 12.6211 17.8891C10.8657 18.2821 10.4989 17.0507 10.4989 17.0507C10.2107 16.3171 9.79145 16.1337 9.79145 16.1337C9.21504 15.7407 9.84385 15.7407 9.84385 15.7407C10.4727 15.7931 10.8133 16.3957 10.8133 16.3957C11.3635 17.3651 12.2805 17.0769 12.6473 16.9197C12.6997 16.5005 12.8569 16.2385 13.0403 16.0813C11.6517 15.9241 10.1844 15.3739 10.1844 12.9635C10.1844 12.2823 10.4203 11.7059 10.8395 11.2867C10.7871 11.1295 10.5513 10.5007 10.8919 9.60984C10.8919 9.60984 11.4159 9.45264 12.6211 10.2649C13.1189 10.1338 13.6691 10.0552 14.1931 10.0552C14.7171 10.0552 15.2673 10.1338 15.7651 10.2649C16.9703 9.45264 17.4943 9.60984 17.4943 9.60984C17.8349 10.4745 17.6253 11.1033 17.5467 11.2867C17.9397 11.7321 18.2017 12.2823 18.2017 12.9635C18.2017 15.3739 16.7345 15.8979 15.3197 16.0551C15.5555 16.2385 15.7389 16.6315 15.7389 17.2079C15.7389 18.0463 15.7389 18.7275 15.7389 18.9371C15.7389 19.0943 15.8437 19.3039 16.1843 19.2515C18.6733 18.4393 20.4811 16.0813 20.4811 13.3041C20.4811 9.81945 17.6777 7.01602 14.1931 7.01602Z" fill="#F9F9F7"/>
</svg>
