<svg width="28" height="28" viewBox="0 0 28 28" fill="none" xmlns="http://www.w3.org/2000/svg">
<circle cx="13.5855" cy="13.5855" r="13.5855" fill="#F9F9F7" fill-opacity="0.12"/>
<path d="M13.5873 8.20053C15.3425 8.20053 15.5503 8.2071 16.2437 8.23872C16.6606 8.24382 17.0735 8.32037 17.4645 8.46504C17.7481 8.5744 18.0056 8.74191 18.2205 8.95681C18.4354 9.17171 18.6029 9.42922 18.7122 9.71278C18.8569 10.1038 18.9335 10.5167 18.9386 10.9336C18.9699 11.627 18.9768 11.8348 18.9768 13.59C18.9768 15.3451 18.9702 15.553 18.9386 16.2464C18.9335 16.6632 18.8569 17.0762 18.7122 17.4672C18.6029 17.7507 18.4354 18.0082 18.2205 18.2231C18.0056 18.438 17.7481 18.6056 17.4645 18.7149C17.0735 18.8596 16.6606 18.9361 16.2437 18.9412C15.5506 18.9725 15.3428 18.9794 13.5873 18.9794C11.8318 18.9794 11.624 18.9729 10.9309 18.9412C10.5141 18.9361 10.1011 18.8596 9.71012 18.7149C9.42656 18.6056 9.16905 18.438 8.95415 18.2231C8.73925 18.0082 8.57173 17.7507 8.46238 17.4672C8.31771 17.0762 8.24116 16.6632 8.23606 16.2464C8.20475 15.553 8.19787 15.3451 8.19787 13.59C8.19787 11.8348 8.20444 11.627 8.23606 10.9336C8.24116 10.5167 8.31771 10.1038 8.46238 9.71278C8.57173 9.42922 8.73925 9.17171 8.95415 8.95681C9.16905 8.74191 9.42656 8.5744 9.71012 8.46504C10.1011 8.32037 10.5141 8.24382 10.9309 8.23872C11.6243 8.20742 11.8322 8.20053 13.5873 8.20053ZM13.5873 7.01602C11.803 7.01602 11.5783 7.02353 10.8771 7.05546C10.3315 7.06632 9.79169 7.16962 9.28064 7.36098C8.84224 7.52616 8.44516 7.785 8.1171 8.11945C7.78235 8.44763 7.52328 8.84493 7.35801 9.28362C7.16664 9.79467 7.06334 10.3345 7.05249 10.8801C7.02118 11.5806 7.01367 11.8054 7.01367 13.5897C7.01367 15.3739 7.02118 15.5987 7.05311 16.2999C7.06397 16.8455 7.16727 17.3853 7.35863 17.8963C7.52373 18.335 7.78258 18.7323 8.1171 19.0605C8.44534 19.395 8.84264 19.6539 9.28127 19.819C9.79232 20.0103 10.3321 20.1136 10.8777 20.1245C11.5789 20.1558 11.8027 20.1639 13.5879 20.1639C15.3732 20.1639 15.597 20.1564 16.2982 20.1245C16.8438 20.1136 17.3836 20.0103 17.8946 19.819C18.3312 19.6498 18.7276 19.3913 19.0585 19.0601C19.3895 18.729 19.6477 18.3324 19.8166 17.8957C20.008 17.3847 20.1113 16.8449 20.1221 16.2993C20.1534 15.5987 20.161 15.3739 20.161 13.5897C20.161 11.8054 20.1534 11.5806 20.1215 10.8794C20.1107 10.3338 20.0074 9.79404 19.816 9.28299C19.6509 8.84436 19.392 8.44706 19.0575 8.11883C18.7293 7.7843 18.332 7.52545 17.8934 7.36036C17.3823 7.16899 16.8425 7.06569 16.2969 7.05484C15.5963 7.02353 15.3716 7.01602 13.5873 7.01602Z" fill="#F9F9F7"/>
<path d="M13.5857 10.2176C12.918 10.2176 12.2654 10.4155 11.7102 10.7865C11.1551 11.1574 10.7224 11.6846 10.4669 12.3014C10.2114 12.9183 10.1446 13.597 10.2748 14.2519C10.4051 14.9067 10.7266 15.5082 11.1987 15.9803C11.6708 16.4524 12.2723 16.7739 12.9271 16.9041C13.5819 17.0344 14.2607 16.9675 14.8775 16.712C15.4943 16.4565 16.0216 16.0239 16.3925 15.4687C16.7634 14.9136 16.9614 14.2609 16.9614 13.5933C16.9614 12.698 16.6057 11.8394 15.9727 11.2063C15.3396 10.5732 14.481 10.2176 13.5857 10.2176ZM13.5857 15.7845C13.1523 15.7845 12.7287 15.656 12.3683 15.4152C12.008 15.1744 11.7271 14.8322 11.5613 14.4318C11.3954 14.0314 11.352 13.5908 11.4366 13.1658C11.5211 12.7407 11.7298 12.3503 12.0363 12.0439C12.3427 11.7374 12.7331 11.5287 13.1582 11.4442C13.5833 11.3596 14.0238 11.403 14.4242 11.5689C14.8246 11.7347 15.1668 12.0156 15.4076 12.3759C15.6484 12.7363 15.7769 13.1599 15.7769 13.5933C15.7769 14.1744 15.546 14.7318 15.1351 15.1427C14.7242 15.5536 14.1668 15.7845 13.5857 15.7845Z" fill="#F9F9F7"/>
<path d="M17.1062 10.8711C17.5419 10.8711 17.8951 10.5179 17.8951 10.0823C17.8951 9.6466 17.5419 9.29343 17.1062 9.29343C16.6706 9.29343 16.3174 9.6466 16.3174 10.0823C16.3174 10.5179 16.6706 10.8711 17.1062 10.8711Z" fill="#F9F9F7"/>
</svg>
