<svg width="56" height="55" viewBox="0 0 56 55" fill="none" xmlns="http://www.w3.org/2000/svg">
<g clip-path="url(#clip0_3874_322)">
<path d="M47.6696 0.80383C47.3611 0.625798 46.9932 0.575068 46.6467 0.662739C46.3001 0.750411 46.003 0.969345 45.8204 1.27163L36.149 17.3631C36.0994 17.4465 36.0594 17.5351 36.0296 17.6272C34.9475 18.0212 33.9375 18.5848 33.0389 19.2959C30.1084 14.4064 24.7392 11.3276 18.8733 11.3276C9.82226 11.3276 2.45979 18.5483 2.43456 27.4317H0.301025L0.491795 28.9239C1.60195 37.597 7.0481 45.1725 14.8789 49.1615V54.2826H35.0844C37.6456 54.2826 39.7293 52.2343 39.7293 49.7182V49.1621C47.5626 45.1713 53.0063 37.5958 54.1189 28.9239L54.3096 27.4305H50.4567C50.4389 22.8963 47.4783 19.0415 43.3601 17.5861L55.4266 6.18174C55.9632 5.67465 55.9804 4.83454 55.4623 4.30751C55.3395 4.18203 55.1927 4.08154 55.0304 4.01178C54.8681 3.94202 54.6933 3.90435 54.5162 3.90092C54.339 3.8975 54.1629 3.92839 53.9979 3.99183C53.8329 4.05526 53.6823 4.15001 53.5546 4.27064L40.1133 16.9762C39.9927 16.9714 39.8727 16.9581 39.7503 16.9581C39.6727 16.9581 39.5983 16.969 39.5219 16.9702L48.1459 2.62004C48.2361 2.47007 48.2953 2.30413 48.3202 2.13169C48.345 1.95925 48.3351 1.78369 48.2908 1.61504C48.2466 1.44638 48.169 1.28794 48.0624 1.14875C47.9558 1.00956 47.8223 0.892356 47.6696 0.80383ZM18.8727 13.9803C24.0401 13.9803 28.7503 16.8372 31.093 21.3134C30.2389 22.4671 29.6333 23.7798 29.3133 25.1712C28.2395 20.4763 23.9699 16.9569 18.8727 16.9569C12.9853 16.9569 8.19579 21.6519 8.17056 27.4311H5.13549C5.1601 20.0109 11.3115 13.9803 18.8727 13.9803ZM18.8727 22.5935C16.1466 22.5935 13.9281 24.7603 13.9029 27.4311H10.8721C10.8973 23.1145 14.4746 19.6102 18.8727 19.6102C23.2721 19.6102 26.853 23.1145 26.8758 27.4311H23.8413C23.8173 24.7603 21.5989 22.5935 18.8727 22.5935ZM21.1386 27.4317H16.6069C16.6189 26.8487 16.863 26.2934 17.2867 25.885C17.7104 25.4765 18.2802 25.2472 18.8739 25.2462C19.4674 25.2473 20.0368 25.4768 20.4601 25.8853C20.8834 26.2938 21.127 26.8489 21.1386 27.4317ZM51.1976 30.0844C49.6967 37.7928 44.3743 44.3644 36.9976 47.5121H32.6746V50.1654H36.9687C36.8676 50.5817 36.6269 50.9525 36.2852 51.2182C35.9435 51.4838 35.5208 51.6288 35.085 51.6299H17.5804V50.1654H22.6444V47.5121H17.613C10.2364 44.3662 4.91333 37.7928 3.41118 30.0844H51.1976ZM37.485 27.4317C37.4969 26.8489 37.7407 26.2939 38.164 25.8854C38.5874 25.4769 39.1568 25.2475 39.7503 25.2462C40.3443 25.2467 40.9144 25.4758 41.3385 25.8844C41.7625 26.2929 42.0066 26.8484 42.0186 27.4317H37.485ZM39.7503 19.6108C44.1515 19.6108 47.7336 23.1151 47.757 27.4317H44.7207C44.6961 24.7609 42.477 22.5941 39.7503 22.5941C37.0241 22.5941 34.8075 24.7609 34.7829 27.4317H31.7496C31.7743 23.1151 35.3515 19.6108 39.7503 19.6108Z" fill="#AD343E"/>
<path d="M39.1741 42.9139C39.3901 42.9139 39.6086 42.8637 39.8098 42.7568C41.4591 41.8897 42.9065 40.6947 44.0598 39.248C45.2131 37.8012 46.0469 36.1345 46.5082 34.3539C46.5524 34.1848 46.5622 34.0088 46.537 33.8361C46.5118 33.6633 46.4522 33.4971 46.3614 33.347C46.2707 33.1969 46.1507 33.0659 46.0083 32.9615C45.8659 32.8571 45.7039 32.7813 45.5316 32.7385C45.3593 32.6957 45.1801 32.6867 45.0043 32.7121C44.8285 32.7374 44.6595 32.7967 44.507 32.8863C44.3545 32.976 44.2215 33.0943 44.1157 33.2346C44.0099 33.3748 43.9334 33.5342 43.8904 33.7035C43.5221 35.1266 42.856 36.4588 41.9345 37.6151C41.0131 38.7714 39.8565 39.7265 38.5384 40.4196C38.2726 40.5585 38.0618 40.7808 37.9395 41.051C37.8172 41.3213 37.7905 41.6239 37.8636 41.9108C37.9367 42.1976 38.1054 42.4522 38.3429 42.634C38.5804 42.8158 38.873 42.9143 39.1741 42.9139Z" fill="#474747"/>
<path d="M35.9059 45.0063C36.7903 45.0063 37.5072 44.3022 37.5072 43.4337C37.5072 42.5651 36.7903 41.861 35.9059 41.861C35.0216 41.861 34.3047 42.5651 34.3047 43.4337C34.3047 44.3022 35.0216 45.0063 35.9059 45.0063Z" fill="#474747"/>
</g>
<defs>
<clipPath id="clip0_3874_322">
<rect width="56" height="55" fill="white"/>
</clipPath>
</defs>
</svg>
