<svg width="56" height="55" viewBox="0 0 56 55" fill="none" xmlns="http://www.w3.org/2000/svg">
<path d="M47.6696 0.803708C47.3611 0.625676 46.9932 0.574946 46.6467 0.662617C46.3001 0.750289 46.003 0.969223 45.8204 1.27151L36.149 17.3629C36.0994 17.4464 36.0594 17.535 36.0296 17.6271C34.9475 18.0211 33.9375 18.5846 33.0389 19.2958C30.1084 14.4062 24.7392 11.3274 18.8733 11.3274C9.82226 11.3274 2.45979 18.5482 2.43456 27.4316H0.301025L0.491795 28.9238C1.60195 37.5969 7.0481 45.1724 14.8789 49.1614V54.2825H35.0844C37.6456 54.2825 39.7293 52.2342 39.7293 49.7181V49.162C47.5626 45.1712 53.0063 37.5957 54.1189 28.9238L54.3096 27.4304H50.4567C50.4389 22.8962 47.4783 19.0413 43.3601 17.586L55.4266 6.18162C55.9632 5.67453 55.9804 4.83442 55.4623 4.30739C55.3395 4.18191 55.1927 4.08142 55.0304 4.01166C54.8681 3.94189 54.6933 3.90422 54.5162 3.9008C54.339 3.89738 54.1629 3.92827 53.9979 3.9917C53.8329 4.05514 53.6823 4.14988 53.5546 4.27052L40.1133 16.9761C39.9927 16.9713 39.8727 16.958 39.7503 16.958C39.6727 16.958 39.5983 16.9689 39.5219 16.9701L48.1459 2.61992C48.2361 2.46995 48.2953 2.30401 48.3202 2.13157C48.345 1.95913 48.3351 1.78357 48.2908 1.61491C48.2466 1.44626 48.169 1.28781 48.0624 1.14863C47.9558 1.00944 47.8223 0.892233 47.6696 0.803708ZM18.8727 13.9801C24.0401 13.9801 28.7503 16.8371 31.093 21.3133C30.2389 22.467 29.6333 23.7797 29.3133 25.1711C28.2395 20.4762 23.9699 16.9568 18.8727 16.9568C12.9853 16.9568 8.19579 21.6517 8.17056 27.431H5.13549C5.1601 20.0108 11.3115 13.9801 18.8727 13.9801ZM18.8727 22.5934C16.1466 22.5934 13.9281 24.7601 13.9029 27.431H10.8721C10.8973 23.1144 14.4746 19.6101 18.8727 19.6101C23.2721 19.6101 26.853 23.1144 26.8758 27.431H23.8413C23.8173 24.7601 21.5989 22.5934 18.8727 22.5934ZM21.1386 27.4316H16.6069C16.6189 26.8485 16.863 26.2933 17.2867 25.8848C17.7104 25.4763 18.2802 25.2471 18.8739 25.2461C19.4674 25.2472 20.0368 25.4766 20.4601 25.8852C20.8834 26.2937 21.127 26.8488 21.1386 27.4316ZM51.1976 30.0843C49.6967 37.7927 44.3743 44.3643 36.9976 47.512H32.6746V50.1653H36.9687C36.8676 50.5816 36.6269 50.9524 36.2852 51.218C35.9435 51.4837 35.5208 51.6287 35.085 51.6298H17.5804V50.1653H22.6444V47.512H17.613C10.2364 44.3661 4.91333 37.7927 3.41118 30.0843H51.1976ZM37.485 27.4316C37.4969 26.8488 37.7407 26.2938 38.164 25.8853C38.5874 25.4768 39.1568 25.2474 39.7503 25.2461C40.3443 25.2466 40.9144 25.4757 41.3385 25.8842C41.7625 26.2928 42.0066 26.8483 42.0186 27.4316H37.485ZM39.7503 19.6107C44.1515 19.6107 47.7336 23.115 47.757 27.4316H44.7207C44.6961 24.7607 42.477 22.594 39.7503 22.594C37.0241 22.594 34.8075 24.7607 34.7829 27.4316H31.7496C31.7743 23.115 35.3515 19.6107 39.7503 19.6107Z" fill="#F9F9F7"/>
<path d="M39.1741 42.9137C39.3901 42.9137 39.6086 42.8635 39.8098 42.7565C41.4591 41.8894 42.9065 40.6944 44.0598 39.2477C45.2131 37.801 46.0469 36.1342 46.5082 34.3536C46.5524 34.1846 46.5622 34.0086 46.537 33.8358C46.5118 33.663 46.4522 33.4968 46.3614 33.3468C46.2707 33.1967 46.1507 33.0657 46.0083 32.9612C45.8659 32.8568 45.7039 32.781 45.5316 32.7382C45.3593 32.6954 45.1801 32.6865 45.0043 32.7118C44.8285 32.7372 44.6595 32.7964 44.507 32.8861C44.3545 32.9757 44.2215 33.0941 44.1157 33.2343C44.0099 33.3745 43.9334 33.5339 43.8904 33.7033C43.5221 35.1264 42.856 36.4586 41.9345 37.6149C41.0131 38.7712 39.8565 39.7263 38.5384 40.4193C38.2726 40.5583 38.0618 40.7805 37.9395 41.0508C37.8172 41.321 37.7905 41.6237 37.8636 41.9105C37.9367 42.1974 38.1054 42.452 38.3429 42.6338C38.5804 42.8156 38.873 42.9141 39.1741 42.9137Z" fill="#F9F9F7"/>
<path d="M35.9059 45.0061C36.7903 45.0061 37.5072 44.302 37.5072 43.4335C37.5072 42.5649 36.7903 41.8608 35.9059 41.8608C35.0216 41.8608 34.3047 42.5649 34.3047 43.4335C34.3047 44.302 35.0216 45.0061 35.9059 45.0061Z" fill="#F9F9F7"/>
</svg>
